<svg xmlns="http://www.w3.org/2000/svg" version="1.1" xmlns:xlink="http://www.w3.org/1999/xlink" xmlns:svgjs="http://svgjs.dev/svgjs" width="1500" height="964" viewBox="0 0 1500 964"><g transform="matrix(1,0,0,1,0.15999999999996817,0.8539152000000172)"><svg viewBox="0 0 375 241" data-background-color="#143b38" preserveAspectRatio="xMidYMid meet" height="964" width="1500" xmlns="http://www.w3.org/2000/svg" xmlns:xlink="http://www.w3.org/1999/xlink"><g id="tight-bounds" transform="matrix(1,0,0,1,-0.03976000000000113,-0.213298800000004)"><svg viewBox="0 0 375.07953 241.4267776" height="241.4267776" width="375.07953"><g><svg></svg></g><g><svg viewBox="0 0 375.07953 241.4267776" height="241.4267776" width="375.07953"><g transform="matrix(1,0,0,1,-10.22024,-5.773179999999996)"><path d="M10.22 241.427v-235.654h375.08v235.654l-19.181 0 0-3.383h15.798v-228.888h-368.314v228.888h31.588l0 3.383z" fill="#e4cec5" fill-rule="nonzero" stroke="none" stroke-width="1" stroke-linecap="butt" stroke-linejoin="miter" stroke-miterlimit="10" stroke-dasharray="" stroke-dashoffset="0" font-family="none" font-weight="none" font-size="none" text-anchor="none" style="mix-blend-mode: normal" data-fill-palette-color="tertiary"></path><g><path transform="translate(53.74038,243.97047) scale(0.29147,0.29147)" d="M18.24-25.73v0c-2.653 0-5.55 0.937-8.69 2.81v0 22.92h-4.06v-29.05h3.57l0.39 3c2.847-2.327 6.037-3.49 9.57-3.49v0c2.02 0 3.61 0.29 4.77 0.87 1.167 0.573 2.01 1.52 2.53 2.84v0c3.593-2.473 7.01-3.71 10.25-3.71v0c3.06 0 5.183 0.7 6.37 2.1v0c1.14 1.347 1.71 3.747 1.71 7.2v0 20.24h-4.1v-19.48c0-2.347-0.227-3.857-0.68-4.53-0.46-0.673-1.003-1.13-1.63-1.37-0.627-0.233-1.357-0.35-2.19-0.35-0.84 0-1.63 0.077-2.37 0.23-0.74 0.153-1.493 0.36-2.26 0.62v0c-1.547 0.54-3.027 1.223-4.44 2.05v0c0.08 0.98 0.12 1.843 0.12 2.59v0 20.24h-4.1v-19.48c0-2.347-0.23-3.857-0.69-4.53-0.453-0.673-0.993-1.13-1.62-1.37-0.627-0.233-1.443-0.35-2.45-0.35zM85.46-29.05v16.26c0 5.367 0.153 9.563 0.46 12.59v0l-3.64 0.3-0.58-3.44c-1.907 1.573-4.13 2.71-6.67 3.41v0c-1.007 0.28-2.207 0.42-3.6 0.42-1.387 0-2.63-0.167-3.73-0.5-1.1-0.333-1.977-0.867-2.63-1.6v0c-1.187-1.32-1.78-3.72-1.78-7.2v0-20.24h4.1v19.58c0 2.34 0.23 3.85 0.69 4.53 0.453 0.673 0.993 1.127 1.62 1.36 0.627 0.24 1.37 0.36 2.23 0.36 0.867 0 1.703-0.07 2.51-0.21 0.8-0.14 1.607-0.34 2.42-0.6v0c1.713-0.553 3.26-1.31 4.64-2.27v0-0.02c-0.06-1.24-0.09-3.65-0.09-7.23v0-15.5zM103.14-2.39l1.76-3.37c3.353 1.873 6.723 2.81 10.11 2.81v0c2.813 0 4.463-1.003 4.95-3.01v0c0.167-0.68 0.25-1.513 0.25-2.5 0-0.987-0.113-1.75-0.34-2.29-0.227-0.547-0.61-0.957-1.15-1.23-0.54-0.267-1.253-0.463-2.14-0.59-0.887-0.133-2.013-0.317-3.38-0.55-1.367-0.24-2.62-0.507-3.76-0.8-1.14-0.293-2.107-0.717-2.9-1.27v0c-1.693-1.187-2.507-3.187-2.44-6v0-0.61c0-2.967 0.977-5.077 2.93-6.33v0c1.887-1.233 5.003-1.653 9.35-1.26v0c2.96 0.273 5.32 0.783 7.08 1.53v0l-1.15 3.69c-1.953-0.833-4.297-1.437-7.03-1.81v0c-0.847-0.113-1.64-0.17-2.38-0.17-0.74 0-1.413 0.057-2.02 0.17-0.6 0.113-1.103 0.327-1.51 0.64v0c-0.78 0.633-1.187 1.813-1.22 3.54v0c-0.047 2.033 0.523 3.327 1.71 3.88v0c1.14 0.54 2.49 0.91 4.05 1.11 1.56 0.207 2.837 0.387 3.83 0.54 0.993 0.153 1.897 0.36 2.71 0.62 0.813 0.26 1.513 0.677 2.1 1.25v0c1.22 1.153 1.813 3.163 1.78 6.03v0c-0.08 4.993-2.163 7.84-6.25 8.54v0c-1.233 0.213-2.47 0.32-3.71 0.32-1.233 0-2.367-0.077-3.4-0.23-1.033-0.16-2.023-0.377-2.97-0.65v0c-1.787-0.507-3.407-1.173-4.86-2zM144.97-36.01v0c-1.087 0-1.787-0.153-2.1-0.46v0c-0.487-0.507-0.73-1.203-0.73-2.09 0-0.887 0.053-1.523 0.16-1.91 0.107-0.38 0.267-0.677 0.48-0.89v0c0.387-0.387 0.983-0.58 1.79-0.58 0.807 0 1.383 0.04 1.73 0.12 0.353 0.08 0.643 0.233 0.87 0.46v0c0.393 0.393 0.59 1.033 0.59 1.92 0 0.887-0.047 1.52-0.14 1.9-0.087 0.387-0.237 0.693-0.45 0.92v0c-0.407 0.407-1.14 0.61-2.2 0.61zM143.05 0l-0.05-29.05h4v29.05zM185.78-4.59l1.22 3.3c-2.26 1.187-5.36 1.78-9.3 1.78v0c-2.327 0-4.037-0.18-5.13-0.54v0c-2.78-0.94-4.603-2.543-5.47-4.81v0c-0.6-1.58-0.95-3.28-1.05-5.1-0.093-1.827-0.14-3.367-0.14-4.62 0-1.253 0.03-2.477 0.09-3.67 0.067-1.193 0.227-2.343 0.48-3.45 0.253-1.107 0.64-2.137 1.16-3.09 0.52-0.953 1.227-1.787 2.12-2.5v0c1.94-1.5 4.723-2.25 8.35-2.25v0c2.673 0 5.133 0.39 7.38 1.17v0c0.6 0.193 1.053 0.38 1.36 0.56v0l-1.22 3.62c-3.12-1.207-5.68-1.81-7.68-1.81-1.993 0-3.457 0.227-4.39 0.68-0.933 0.46-1.663 1.153-2.19 2.08v0c-0.873 1.593-1.31 4.523-1.31 8.79v0c0 1.707 0.057 3.263 0.17 4.67 0.113 1.407 0.397 2.617 0.85 3.63v0c0.96 2.08 2.943 3.12 5.95 3.12 3 0 5.917-0.52 8.75-1.56zM225.54 0l-0.05-41.5 4.03-0.35v41.85zM252.26-36.01v0c-1.087 0-1.787-0.153-2.1-0.46v0c-0.487-0.507-0.73-1.203-0.73-2.09 0-0.887 0.053-1.523 0.16-1.91 0.107-0.38 0.263-0.677 0.47-0.89v0c0.393-0.387 0.993-0.58 1.8-0.58 0.807 0 1.383 0.04 1.73 0.12 0.353 0.08 0.643 0.233 0.87 0.46v0c0.393 0.393 0.59 1.033 0.59 1.92 0 0.887-0.047 1.52-0.14 1.9-0.087 0.387-0.237 0.693-0.45 0.92v0c-0.407 0.407-1.14 0.61-2.2 0.61zM250.33 0l-0.05-29.05h4.01v29.05zM277.91-2.71v0l-0.52 2.71h-3.44v-41.55l4.05-0.39v15.67c3.373-2.18 6.63-3.27 9.77-3.27v0c4.36 0 7.127 1.343 8.3 4.03v0c0.733 1.693 1.15 4.07 1.25 7.13v0c0.027 1.48 0.04 3.107 0.04 4.88v0 1.95c0 2.233-0.14 3.91-0.42 5.03-0.287 1.127-0.65 2.09-1.09 2.89-0.44 0.807-1.043 1.513-1.81 2.12v0c-1.66 1.333-4.037 2-7.13 2-3.087 0-6.087-1.067-9-3.2zM278-23.05v17.14c3.453 1.873 6.36 2.81 8.72 2.81v0h0.29c2.787 0 4.577-0.773 5.37-2.32v0c0.427-0.78 0.687-1.797 0.78-3.05 0.1-1.253 0.15-2.76 0.15-4.52v0-3.51c0-3.633-0.413-6.077-1.24-7.33v0c-0.813-1.253-2.36-1.88-4.64-1.88v0h-0.61c-2.033 0-4.393 0.603-7.08 1.81v0c-0.7 0.307-1.28 0.59-1.74 0.85zM325.89-25.51v0c-2.087 0-4.21 1.04-6.37 3.12v0 22.39h-4.06v-29.05h3.57l0.39 3.85c0.767-1.187 1.593-2.113 2.48-2.78 0.887-0.667 1.613-1.073 2.18-1.22v0c0.813-0.227 1.587-0.34 2.32-0.34 0.733 0 1.653 0.147 2.76 0.44v0l-0.37 3.88c-0.827-0.193-1.793-0.29-2.9-0.29zM366.62-19.41v9.11c0 3.24 0.153 6.607 0.46 10.1v0l-3.61 0.3-0.61-3.4c-2.067 1.66-4.8 2.817-8.2 3.47v0c-1.107 0.213-2.093 0.32-2.96 0.32-0.86 0-1.62-0.04-2.28-0.12-0.66-0.087-1.293-0.247-1.9-0.48-0.613-0.233-1.18-0.563-1.7-0.99-0.52-0.42-0.977-0.98-1.37-1.68v0c-0.827-1.48-1.24-3.26-1.24-5.34 0-2.073 0.15-3.683 0.45-4.83 0.3-1.147 0.8-2.103 1.5-2.87v0c1.387-1.513 3.713-2.27 6.98-2.27 3.273 0 6.767 0.617 10.48 1.85v0-3.17c0-3.533-1.457-5.623-4.37-6.27v0c-0.947-0.213-2.03-0.32-3.25-0.32v0c-2.787 0-5.677 0.553-8.67 1.66v0l-0.9-3.52c0.827-0.553 2.943-1.05 6.35-1.49v0c1.073-0.127 2.363-0.19 3.87-0.19 1.5 0 2.977 0.18 4.43 0.54 1.447 0.353 2.65 0.937 3.61 1.75v0c1.953 1.613 2.93 4.227 2.93 7.84zM362.52-13.18v0c-3.807-0.96-7.323-1.44-10.55-1.44v0c-1.987 0-3.303 0.567-3.95 1.7v0c-0.44 0.8-0.66 1.98-0.66 3.54 0 1.567 0.083 2.7 0.25 3.4 0.173 0.7 0.457 1.277 0.85 1.73v0c0.76 0.867 2.02 1.3 3.78 1.3v0c2.753 0 5.48-0.71 8.18-2.13v0c0.827-0.42 1.577-0.89 2.25-1.41v0c-0.1-1.76-0.15-3.99-0.15-6.69zM396.17-25.51v0c-2.08 0-4.203 1.04-6.37 3.12v0 22.39h-4.05v-29.05h3.56l0.39 3.85c0.767-1.187 1.593-2.113 2.48-2.78 0.887-0.667 1.613-1.073 2.18-1.22v0c0.813-0.227 1.587-0.34 2.32-0.34 0.733 0 1.653 0.147 2.76 0.44v0l-0.36 3.88c-0.833-0.193-1.803-0.29-2.91-0.29zM412.93 10.21l1.1-3.18c1.187 0.427 2.157 0.64 2.91 0.64 0.76 0 1.257-0.023 1.49-0.07 0.24-0.04 0.48-0.123 0.72-0.25v0c0.573-0.313 0.997-0.82 1.27-1.52v0c0.687-1.66 1.283-3.48 1.79-5.46v0l-11.21-29.42h4.52l7.56 21.41 1.15 3.76 1.05-3.79 6.69-21.38h4.25l-12.26 35.93c-0.893 2.8-2.96 4.2-6.2 4.2v0c-2.047 0-3.657-0.29-4.83-0.87zM471.25-13.87v-3.54h16.38v3.54zM545-4.59l1.22 3.3c-2.267 1.187-5.367 1.78-9.3 1.78v0c-2.333 0-4.043-0.18-5.13-0.54v0c-2.787-0.94-4.61-2.543-5.47-4.81v0c-0.6-1.58-0.95-3.28-1.05-5.1-0.1-1.827-0.15-3.367-0.15-4.62 0-1.253 0.033-2.477 0.1-3.67 0.067-1.193 0.227-2.343 0.48-3.45 0.253-1.107 0.64-2.137 1.16-3.09 0.52-0.953 1.227-1.787 2.12-2.5v0c1.94-1.5 4.723-2.25 8.35-2.25v0c2.667 0 5.123 0.39 7.37 1.17v0c0.607 0.193 1.063 0.38 1.37 0.56v0l-1.22 3.62c-3.127-1.207-5.687-1.81-7.68-1.81-1.993 0-3.457 0.227-4.39 0.68-0.94 0.46-1.67 1.153-2.19 2.08v0c-0.88 1.593-1.32 4.523-1.32 8.79v0c0 1.707 0.057 3.263 0.17 4.67 0.12 1.407 0.407 2.617 0.86 3.63v0c0.96 2.08 2.94 3.12 5.94 3.12 3.007 0 5.927-0.52 8.76-1.56zM562.44-14.45v0c0-3.7 0.187-6.28 0.56-7.74 0.373-1.467 0.833-2.627 1.38-3.48 0.547-0.853 1.283-1.567 2.21-2.14v0c1.853-1.153 4.597-1.73 8.23-1.73v0c5.24 0 8.607 1.293 10.1 3.88v0c0.9 1.56 1.413 3.767 1.54 6.62v0c0.047 1.347 0.07 2.833 0.07 4.46 0 1.633-0.05 3.153-0.15 4.56-0.107 1.407-0.317 2.67-0.63 3.79-0.307 1.127-0.737 2.11-1.29 2.95-0.553 0.833-1.287 1.537-2.2 2.11v0c-1.787 1.107-4.4 1.66-7.84 1.66v0c-5.14 0-8.517-1.27-10.13-3.81v0c-0.993-1.58-1.57-3.793-1.73-6.64v0c-0.08-1.367-0.12-2.863-0.12-4.49zM569.08-4.27c0.587 0.44 1.323 0.77 2.21 0.99 0.887 0.22 2.1 0.33 3.64 0.33 1.533 0 2.827-0.22 3.88-0.66 1.047-0.44 1.837-1.147 2.37-2.12 0.527-0.967 0.86-2.223 1-3.77 0.133-1.547 0.2-3.343 0.2-5.39 0-2.053-0.06-3.763-0.18-5.13-0.12-1.367-0.427-2.497-0.92-3.39v0c-0.973-1.76-3.143-2.64-6.51-2.64v0c-3.567 0-5.887 0.88-6.96 2.64v0c-0.54 0.893-0.883 2.03-1.03 3.41-0.147 1.387-0.22 2.893-0.22 4.52 0 1.627 0.02 3.007 0.06 4.14 0.047 1.133 0.153 2.15 0.32 3.05 0.173 0.907 0.427 1.693 0.76 2.36 0.333 0.667 0.793 1.22 1.38 1.66zM618.38-25.73v0c-3.173 0-6.403 0.937-9.69 2.81v0 22.92h-4.06v-29.05h3.57l0.39 3c1.773-1.447 3.98-2.48 6.62-3.1v0c1.073-0.26 2.333-0.39 3.78-0.39 1.447 0 2.723 0.167 3.83 0.5 1.107 0.333 1.987 0.867 2.64 1.6v0c1.187 1.32 1.78 3.72 1.78 7.2v0 20.24h-4.1v-19.48c0-2.347-0.227-3.857-0.68-4.53-0.46-0.673-1.003-1.13-1.63-1.37-0.627-0.233-1.443-0.35-2.45-0.35zM664.97-4.59l1.22 3.3c-2.26 1.187-5.36 1.78-9.3 1.78v0c-2.327 0-4.037-0.18-5.13-0.54v0c-2.78-0.94-4.603-2.543-5.47-4.81v0c-0.6-1.58-0.95-3.28-1.05-5.1-0.093-1.827-0.14-3.367-0.14-4.62 0-1.253 0.03-2.477 0.09-3.67 0.067-1.193 0.227-2.343 0.48-3.45 0.253-1.107 0.64-2.137 1.16-3.09 0.52-0.953 1.227-1.787 2.12-2.5v0c1.94-1.5 4.723-2.25 8.35-2.25v0c2.673 0 5.133 0.39 7.38 1.17v0c0.6 0.193 1.053 0.38 1.36 0.56v0l-1.22 3.62c-3.12-1.207-5.677-1.81-7.67-1.81-2 0-3.467 0.227-4.4 0.68-0.933 0.46-1.66 1.153-2.18 2.08v0c-0.88 1.593-1.32 4.523-1.32 8.79v0c0 1.707 0.057 3.263 0.17 4.67 0.113 1.407 0.397 2.617 0.85 3.63v0c0.96 2.08 2.943 3.12 5.95 3.12 3 0 5.917-0.52 8.75-1.56zM704.82-5.03l1.2 3.49c-3.367 1.353-7.087 2.03-11.16 2.03v0c-2.36 0-4.36-0.243-6-0.73v0c-2.62-0.753-4.363-2.3-5.23-4.64v0c-0.793-2.2-1.19-5.457-1.19-9.77v0-1.24c0-5.16 1.073-8.783 3.22-10.87v0c1.933-1.853 5.163-2.78 9.69-2.78v0c4.413 0 7.423 1.09 9.03 3.27v0c0.787 1.06 1.303 2.343 1.55 3.85 0.253 1.5 0.38 2.933 0.38 4.3v0c0 2.133-0.047 3.787-0.14 4.96v0c-2.3 0.1-4.36 0.15-6.18 0.15v0c0 0-1.31 0-3.93 0v0c-4.1 0-7.257-0.18-9.47-0.54v0c0 3.747 0.47 6.36 1.41 7.84v0c1.16 1.807 3.463 2.71 6.91 2.71 3.453 0 6.757-0.677 9.91-2.03zM686.59-16.41h15.6v-2.34c0-2.553-0.497-4.377-1.49-5.47v0c-1.107-1.22-3.02-1.83-5.74-1.83v0c-3.253 0-5.477 0.707-6.67 2.12v0c-1.133 1.353-1.7 3.86-1.7 7.52zM735.06-25.51v0c-2.087 0-4.21 1.04-6.37 3.12v0 22.39h-4.06v-29.05h3.57l0.39 3.85c0.76-1.187 1.587-2.113 2.48-2.78 0.887-0.667 1.613-1.073 2.18-1.22v0c0.813-0.227 1.587-0.34 2.32-0.34 0.733 0 1.653 0.147 2.76 0.44v0l-0.37 3.88c-0.827-0.193-1.793-0.29-2.9-0.29zM766.46-4.57l1.39 3.18c-2.653 1.253-5.1 1.88-7.34 1.88v0c-4.073 0-6.387-1.743-6.94-5.23v0c-0.127-0.827-0.19-2.03-0.19-3.61v0-17.31h-3.52v-3l3.52-0.39 0.63-6.64h3.4v6.64h8.47v3.39h-8.47v17.24c0 2 0.143 3.277 0.43 3.83v0c0.54 1.007 1.617 1.51 3.23 1.51 1.607 0 3.403-0.497 5.39-1.49zM825.25-19.41v9.11c0 3.24 0.153 6.607 0.46 10.1v0l-3.61 0.3-0.61-3.4c-2.067 1.66-4.803 2.817-8.21 3.47v0c-1.107 0.213-2.09 0.32-2.95 0.32-0.86 0-1.62-0.04-2.28-0.12-0.66-0.087-1.297-0.247-1.91-0.48-0.607-0.233-1.17-0.563-1.69-0.99-0.527-0.42-0.983-0.98-1.37-1.68v0c-0.833-1.48-1.25-3.26-1.25-5.34 0-2.073 0.15-3.683 0.45-4.83 0.307-1.147 0.81-2.103 1.51-2.87v0c1.38-1.513 3.707-2.27 6.98-2.27 3.273 0 6.763 0.617 10.47 1.85v0-3.17c0-3.533-1.457-5.623-4.37-6.27v0c-0.94-0.213-2.023-0.32-3.25-0.32v0c-2.78 0-5.667 0.553-8.66 1.66v0l-0.91-3.52c0.833-0.553 2.95-1.05 6.35-1.49v0c1.073-0.127 2.363-0.19 3.87-0.19 1.507 0 2.983 0.18 4.43 0.54 1.453 0.353 2.66 0.937 3.62 1.75v0c1.953 1.613 2.93 4.227 2.93 7.84zM821.14-13.18v0c-3.807-0.96-7.32-1.44-10.54-1.44v0c-1.987 0-3.307 0.567-3.96 1.7v0c-0.44 0.8-0.66 1.98-0.66 3.54 0 1.567 0.087 2.7 0.26 3.4 0.173 0.7 0.453 1.277 0.84 1.73v0c0.767 0.867 2.03 1.3 3.79 1.3v0c2.747 0 5.47-0.71 8.17-2.13v0c0.833-0.42 1.583-0.89 2.25-1.41v0c-0.1-1.76-0.15-3.99-0.15-6.69zM854.8-25.51v0c-2.087 0-4.213 1.04-6.38 3.12v0 22.39h-4.05v-29.05h3.57l0.39 3.85c0.76-1.187 1.583-2.113 2.47-2.78 0.893-0.667 1.623-1.073 2.19-1.22v0c0.813-0.227 1.587-0.34 2.32-0.34 0.733 0 1.653 0.147 2.76 0.44v0l-0.37 3.88c-0.827-0.193-1.793-0.29-2.9-0.29zM892.26-4.59l1.22 3.3c-2.267 1.187-5.367 1.78-9.3 1.78v0c-2.333 0-4.043-0.18-5.13-0.54v0c-2.787-0.94-4.61-2.543-5.47-4.81v0c-0.6-1.58-0.95-3.28-1.05-5.1-0.1-1.827-0.15-3.367-0.15-4.62 0-1.253 0.033-2.477 0.1-3.67 0.067-1.193 0.227-2.343 0.48-3.45 0.253-1.107 0.64-2.137 1.16-3.09 0.52-0.953 1.227-1.787 2.12-2.5v0c1.94-1.5 4.723-2.25 8.35-2.25v0c2.667 0 5.123 0.39 7.37 1.17v0c0.607 0.193 1.063 0.38 1.37 0.56v0l-1.22 3.62c-3.127-1.207-5.687-1.81-7.68-1.81-1.993 0-3.457 0.227-4.39 0.68-0.94 0.46-1.67 1.153-2.19 2.08v0c-0.88 1.593-1.32 4.523-1.32 8.79v0c0 1.707 0.057 3.263 0.17 4.67 0.12 1.407 0.407 2.617 0.86 3.63v0c0.96 2.08 2.94 3.12 5.94 3.12 3.007 0 5.927-0.52 8.76-1.56zM924.27-25.76v0c-3.24 0-6.453 0.937-9.64 2.81v0 22.95h-4.05v-41.55l3.95-0.39v15.89c1.68-1.433 3.86-2.467 6.54-3.1v0c1.08-0.26 2.35-0.39 3.81-0.39 1.467 0 2.753 0.167 3.86 0.5 1.107 0.333 1.987 0.867 2.64 1.6v0c1.173 1.32 1.76 3.72 1.76 7.2v0 20.24h-4.11v-19.51c0-2.34-0.227-3.85-0.68-4.53-0.453-0.673-0.993-1.127-1.62-1.36-0.627-0.24-1.447-0.36-2.46-0.36zM954.82-36.01v0c-1.087 0-1.787-0.153-2.1-0.46v0c-0.487-0.507-0.73-1.203-0.73-2.09 0-0.887 0.053-1.523 0.16-1.91 0.107-0.38 0.267-0.677 0.48-0.89v0c0.387-0.387 0.983-0.58 1.79-0.58 0.807 0 1.383 0.04 1.73 0.12 0.353 0.08 0.643 0.233 0.87 0.46v0c0.393 0.393 0.59 1.033 0.59 1.92 0 0.887-0.047 1.52-0.14 1.9-0.087 0.387-0.237 0.693-0.45 0.92v0c-0.407 0.407-1.14 0.61-2.2 0.61zM952.9 0l-0.05-29.05h4v29.05zM983.18 0l-9.96-29.05h4.37l7.61 23.7 0.74 2.42 0.68-2.42 7.28-23.7h4.41l-9.81 29.05zM1035.41-5.03l1.2 3.49c-3.373 1.353-7.093 2.03-11.16 2.03v0c-2.36 0-4.363-0.243-6.01-0.73v0c-2.62-0.753-4.36-2.3-5.22-4.64v0c-0.8-2.2-1.2-5.457-1.2-9.77v0-1.24c0-5.16 1.073-8.783 3.22-10.87v0c1.94-1.853 5.173-2.78 9.7-2.78v0c4.407 0 7.417 1.09 9.03 3.27v0c0.78 1.06 1.297 2.343 1.55 3.85 0.253 1.5 0.38 2.933 0.38 4.3v0c0 2.133-0.05 3.787-0.15 4.96v0c-2.293 0.1-4.353 0.15-6.18 0.15v0c0 0-1.31 0-3.93 0v0c-4.1 0-7.257-0.18-9.47-0.54v0c0 3.747 0.473 6.36 1.42 7.84v0c1.153 1.807 3.457 2.71 6.91 2.71 3.447 0 6.75-0.677 9.91-2.03zM1017.17-16.41h15.6v-2.34c0-2.553-0.497-4.377-1.49-5.47v0c-1.107-1.22-3.017-1.83-5.73-1.83v0c-3.26 0-5.483 0.707-6.67 2.12v0c-1.14 1.353-1.71 3.86-1.71 7.52z" fill="#e4cec5" fill-rule="nonzero" stroke="none" stroke-width="1" stroke-linecap="butt" stroke-linejoin="miter" stroke-miterlimit="10" stroke-dasharray="" stroke-dashoffset="0" font-family="none" font-weight="none" font-size="none" text-anchor="none" style="mix-blend-mode: normal" data-fill-palette-color="secondary"></path></g></g><g transform="matrix(1,0,0,1,29.33176499999999,70.30901978591925)"><svg viewBox="0 0 316.416 100.80873802816151" height="100.80873802816151" width="316.416"><g><svg viewBox="0 0 316.416 100.80873802816151" height="100.80873802816151" width="316.416"><g><svg viewBox="0 0 316.416 100.80873802816151" height="100.80873802816151" width="316.416"><g transform="matrix(1,0,0,1,0,63.29398721609654)"><svg viewBox="0 0 316.416 37.51475081206497" height="37.51475081206497" width="316.416"><g id="textblocktransform"><svg viewBox="0 0 316.416 37.51475081206497" height="37.51475081206497" width="316.416" id="textblock"><g><svg viewBox="0 0 316.416 37.51475081206497" height="37.51475081206497" width="316.416"><g transform="matrix(1,0,0,1,0,0)"><svg width="316.416" viewBox="4.5 -25.2 215.48 25.55" height="37.51475081206497" data-palette-color="#e4cec5"><path d="M15.95-10.05Q19-5.4 22.7-0.9L22.7-0.9 22.65-0.4Q20.55 0.25 19.2 0.35L19.2 0.35 18.55-0.05Q14.75-5.8 12.8-9.1L12.8-9.1 8.1-9.05 8.1-7.8 8.2 0 4.5 0 4.65-7.5 4.5-24.9 13-24.95Q16.95-24.95 19.07-23.1 21.2-21.25 21.2-17.75L21.2-17.75Q21.2-15.2 19.83-13.2 18.45-11.2 15.95-10.05L15.95-10.05ZM8.2-21.9L8.15-12.15 12.85-12Q17.3-13.25 17.3-17.45L17.3-17.45Q17.3-19.65 16-20.75 14.7-21.85 12.05-21.95L12.05-21.95 8.2-21.9ZM37.85-3L44.5-3.2 44.8-2.9 44.45 0 29.3 0 29.45-7.5 29.3-24.9 44.55-24.9 44.8-24.6 44.5-21.7 38.2-21.9 33-21.85 32.95-14.3 37.9-14.25 42.25-14.4 42.5-14.05 42.2-11.1 37.6-11.25 32.95-11.2 32.9-7.8 32.95-3.05 37.85-3ZM59.55-24.95Q63.5-24.95 65.62-23.05 67.75-21.15 67.75-17.55L67.75-17.55Q67.75-13.35 65.07-10.98 62.4-8.6 57.7-8.6L57.7-8.6 54.65-8.6 54.65-7.8 54.75 0 51.05 0 51.2-7.5 51.05-24.9 59.55-24.95ZM58.9-11.5Q63.84-12.35 63.84-17.25L63.84-17.25Q63.84-19.6 62.52-20.75 61.2-21.9 58.55-22L58.55-22 54.75-21.95 54.7-11.6 58.9-11.5ZM82.89-3L89.54-3.2 89.84-2.9 89.49 0 74.34 0 74.49-7.5 74.34-24.9 89.59-24.9 89.84-24.6 89.54-21.7 83.24-21.9 78.04-21.85 77.99-14.3 82.94-14.25 87.29-14.4 87.54-14.05 87.24-11.1 82.64-11.25 77.99-11.2 77.94-7.8 77.99-3.05 82.89-3ZM107.54-10.05Q110.59-5.4 114.29-0.9L114.29-0.9 114.24-0.4Q112.14 0.25 110.79 0.35L110.79 0.35 110.14-0.05Q106.34-5.8 104.39-9.1L104.39-9.1 99.69-9.05 99.69-7.8 99.79 0 96.09 0 96.24-7.5 96.09-24.9 104.59-24.95Q108.54-24.95 110.67-23.1 112.79-21.25 112.79-17.75L112.79-17.75Q112.79-15.2 111.42-13.2 110.04-11.2 107.54-10.05L107.54-10.05ZM99.79-21.9L99.74-12.15 104.44-12Q108.89-13.25 108.89-17.45L108.89-17.45Q108.89-19.65 107.59-20.75 106.29-21.85 103.64-21.95L103.64-21.95 99.79-21.9ZM134.59-24.9L134.79-24.6 134.54-21.45 129.89-21.8 127.39-21.8 127.24-7.8 127.39 0 123.64 0 123.79-7.5 123.69-21.8 121.19-21.8 116.44-21.45 116.14-21.8 116.44-24.9 134.59-24.9ZM148.69-25.2Q154.14-25.2 157.06-22 159.99-18.8 159.99-12.95L159.99-12.95Q159.99-6.6 156.86-3.13 153.74 0.35 147.94 0.35L147.94 0.35Q142.54 0.35 139.59-2.93 136.64-6.2 136.64-12.25L136.64-12.25Q136.64-18.45 139.79-21.83 142.94-25.2 148.69-25.2L148.69-25.2ZM148.34-22.05Q144.39-22.05 142.46-19.8 140.54-17.55 140.54-12.7L140.54-12.7Q140.54-7.5 142.44-5.15 144.34-2.8 148.24-2.8L148.24-2.8Q152.24-2.8 154.19-5.1 156.14-7.4 156.14-12.3L156.14-12.3Q156.14-17.35 154.21-19.7 152.29-22.05 148.34-22.05L148.34-22.05ZM170.48-24.9L170.33-7.8 170.43 0 166.73 0 166.88-7.5 166.73-24.9 170.48-24.9ZM191.13-10.05Q194.18-5.4 197.88-0.9L197.88-0.9 197.83-0.4Q195.73 0.25 194.38 0.35L194.38 0.35 193.73-0.05Q189.93-5.8 187.98-9.1L187.98-9.1 183.28-9.05 183.28-7.8 183.38 0 179.68 0 179.83-7.5 179.68-24.9 188.18-24.95Q192.13-24.95 194.25-23.1 196.38-21.25 196.38-17.75L196.38-17.75Q196.38-15.2 195-13.2 193.63-11.2 191.13-10.05L191.13-10.05ZM183.38-21.9L183.33-12.15 188.03-12Q192.48-13.25 192.48-17.45L192.48-17.45Q192.48-19.65 191.18-20.75 189.88-21.85 187.23-21.95L187.23-21.95 183.38-21.9ZM213.03-3L219.68-3.2 219.98-2.9 219.63 0 204.48 0 204.63-7.5 204.48-24.9 219.73-24.9 219.98-24.6 219.68-21.7 213.38-21.9 208.18-21.85 208.13-14.3 213.08-14.25 217.43-14.4 217.68-14.05 217.38-11.1 212.78-11.25 208.13-11.2 208.08-7.8 208.13-3.05 213.03-3Z" opacity="1" transform="matrix(1,0,0,1,0,0)" fill="#e4cec5" class="wordmark-text-0" data-fill-palette-color="primary" id="text-0"></path></svg></g></svg></g></svg></g></svg></g><g transform="matrix(1,0,0,1,124.48465517356874,0)"><svg viewBox="0 0 67.4466896528625 54.43765490338749" height="54.43765490338749" width="67.4466896528625"><g><svg xmlns="http://www.w3.org/2000/svg" viewBox="16.851520643520935 21.720000000000002 65.72742511473808 53.05" x="0" y="0" height="54.43765490338749" width="67.4466896528625" class="icon-icon-0" data-fill-palette-color="accent" id="icon-0"><g data-name="Capa 2" fill="#d7ea21" data-fill-palette-color="accent"><path d="M80 55.84V30.62c4-1.09 3.1-7.09-1-7.09H76.31c0-0.72 0.09-1.81-1-1.81H25.54c-1 0-1 1.09-1 1.81H20.45A3.65 3.65 0 0 0 17 28.21 3.81 3.81 0 0 0 21 30.75V66.43a2.15 2.15 0 0 0-1.67 2.1v4.08a2.16 2.16 0 0 0 2.15 2.16H26a2.16 2.16 0 0 0 2.16-2.16V68.53a2.17 2.17 0 0 0-1.67-2.1V30.75h1.95V59.4a2.85 2.85 0 1 0 5.68 0V30.75h2V56.5a2.85 2.85 0 1 0 5.68 0V30.75h2v9.19a1 1 0 0 0 1.92 0V30.75h1.83V53.6c0 1.61-1.83 1.61-1.83 0V44.13a1 1 0 0 0-1.92 0V53.6a2.85 2.85 0 1 0 5.68 0V30.75h2v20a2.84 2.84 0 1 0 5.67 0v-20h2V47.81a2.85 2.85 0 1 0 5.68 0V30.75h2V44.91a2.85 2.85 0 1 0 5.68 0V30.75h2V66.43a2.15 2.15 0 0 0-1.67 2.1v4.08a2.16 2.16 0 0 0 2.15 2.16h4.59a2.16 2.16 0 0 0 2.16-2.16V68.53A2.17 2.17 0 0 0 80 66.43V60.34a1 1 0 0 0-1.93 0v6H76.31V30.75H78V55.84A1 1 0 0 0 80 55.84ZM69.2 23.64h5.19v1.71H69.2Zm-7.12 0h5.19v1.71H62.08Zm-7.11 0h5.19v1.71H55Zm-7.12 0H53v1.71H47.85Zm-7.11 0h5.19v1.71H40.74Zm-7.12 0h5.19v1.71H33.62Zm-7.11 0H31.7v1.71H26.51Zm-0.26 49a0.23 0.23 0 0 1-0.23 0.23H21.43a0.23 0.23 0 0 1-0.23-0.23V68.53a0.24 0.24 0 0 1 0.23-0.23H26a0.23 0.23 0 0 1 0.23 0.23Zm-3.38-6.23V30.75h1.71V66.38Zm9.35-7c0 1.59-1.83 1.55-1.83 0V30.75h1.83Zm7.65-2.9c0 1.61-1.82 1.57-1.82 0V30.75h1.82Zm15.32-5.79c0 1.6-1.83 1.6-1.83 0v-20h1.83Zm7.66-2.9c0 1.61-1.83 1.6-1.83 0V30.75h1.83Zm7.65-2.9c0 1.59-1.82 1.55-1.82 0V30.75H70.5Zm9 23.39a0.23 0.23 0 0 1 0.23 0.23v4.08a0.23 0.23 0 0 1-0.23 0.23H74.87a0.23 0.23 0 0 1-0.23-0.23V68.53a0.23 0.23 0 0 1 0.23-0.23Zm-59-39.48a1.68 1.68 0 0 1-1.68-1.68 1.7 1.7 0 0 1 1.68-1.68h4.13c0 0.72-0.08 1.82 1 1.82H75.35c1.05 0 1-1.1 1-1.82H79a1.68 1.68 0 0 1 0 3.36Z" fill="#d7ea21" data-fill-palette-color="accent"></path></g></svg></g></svg></g><g></g></svg></g></svg></g></svg></g></svg></g><defs></defs></svg><rect width="375.07953" height="241.4267776" fill="none" stroke="none" visibility="hidden"></rect></g></svg></g></svg>