<svg xmlns="http://www.w3.org/2000/svg" version="1.1" xmlns:xlink="http://www.w3.org/1999/xlink" xmlns:svgjs="http://svgjs.dev/svgjs" width="1000" height="1000" viewBox="0 0 1000 1000"><rect width="1000" height="1000" fill="#000000"></rect><g transform="matrix(0.7,0,0,0.7,149.84897959183672,150.19913061224486)"><svg viewBox="0 0 343 343" data-background-color="#883d1a" preserveAspectRatio="xMidYMid meet" height="999" width="1000" xmlns="http://www.w3.org/2000/svg" xmlns:xlink="http://www.w3.org/1999/xlink"><g id="tight-bounds" transform="matrix(1,0,0,1,0.07400000000001228,0.07400000000001228)"><svg viewBox="0 0 342.8515585177538 342.8515585177538" height="342.8515585177538" width="342.8515585177538"><g><svg></svg></g><g><svg viewBox="0 0 342.8515585177538 342.8515585177538" height="342.8515585177538" width="342.8515585177538"><g><path d="M0 171.426c0-94.676 76.75-171.426 171.426-171.426 94.676 0 171.426 76.75 171.426 171.426 0 94.676-76.75 171.426-171.426 171.426-94.676 0-171.426-76.75-171.426-171.426zM171.426 338.226c92.121 0 166.8-74.679 166.8-166.8 0-92.121-74.679-166.8-166.8-166.8-92.121 0-166.8 74.679-166.8 166.8 0 92.121 74.679 166.8 166.8 166.8z" data-fill-palette-color="tertiary" fill="#ffffff" stroke="transparent"></path><ellipse rx="164.56874808852183" ry="164.56874808852183" cx="171.4257792588769" cy="171.4257792588769" fill="#ffffff" stroke="transparent" stroke-width="0" fill-opacity="1" data-fill-palette-color="tertiary"></ellipse></g><g transform="matrix(1,0,0,1,64.84655864529836,104.28309609018102)"><svg viewBox="0 0 213.15844122715708 134.28536633739176" height="134.28536633739176" width="213.15844122715708"><g><svg viewBox="0 0 213.15844122715708 134.28536633739176" height="134.28536633739176" width="213.15844122715708"><g><svg viewBox="0 0 213.15844122715714 134.2853663373918" height="134.28536633739176" width="213.15844122715708"><g transform="matrix(1,0,0,1,0,82.99374365822138)"><svg viewBox="0 0 213.15844122715714 51.29162267917043" height="51.29162267917043" width="213.15844122715714"><g id="textblocktransform"><svg viewBox="0 0 213.15844122715714 51.29162267917043" height="51.29162267917043" width="213.15844122715714" id="textblock"><g><svg viewBox="0 0 213.15844122715714 51.29162267917043" height="51.29162267917043" width="213.15844122715714"><g transform="matrix(1,0,0,1,0,0)"><svg width="213.15844122715714" viewBox="1.25 -31.299999237060547 178.67999267578125 43" height="51.29162267917043" data-palette-color="#883d1a"><path d="M12.65-21.7Q13.65-21.7 14.35-21.03 15.05-20.35 15.05-19.4L15.05-19.4Q15.05-18.6 14.5-18.05 13.95-17.5 13.15-17.5L13.15-17.5Q12.65-17.5 12.33-17.73 12-17.95 11.65-18.4L11.65-18.4Q11.3-18.8 11.03-19 10.75-19.2 10.35-19.2L10.35-19.2Q9.55-19.2 8.72-18.25 7.9-17.3 7.55-16.05L7.55-16.05 7.55-0.8 11.55-0.4 11.55 0 1.25 0 1.25-0.4 4.3-0.8 4.3-18.3 1.35-19.4 1.35-19.75 7-21.7 7.4-21.7 7.4-17.3Q10.2-21.7 12.65-21.7L12.65-21.7ZM33.65-5.1L34.1-5.7 34.3-5.6 34.1-5.05Q33.1-2.4 31.12-0.95 29.15 0.5 26.4 0.5L26.4 0.5Q23.7 0.5 21.6-0.9 19.5-2.3 18.32-4.8 17.15-7.3 17.15-10.55L17.15-10.55Q17.15-13.8 18.4-16.35 19.65-18.9 21.95-20.3 24.25-21.7 27.2-21.7L27.2-21.7Q30.7-21.7 32.57-19.63 34.45-17.55 34.5-13.6L34.5-13.6 34.2-13.35 20.7-13.35Q20.6-12.05 20.6-11.3L20.6-11.3Q20.6-6.75 22.45-4.38 24.3-2 27.6-2L27.6-2Q29.3-2 30.87-2.78 32.45-3.55 33.65-5.1L33.65-5.1ZM26.65-21.15Q24.3-21.15 22.75-19.2 21.2-17.25 20.75-13.9L20.75-13.9 30.45-14.25Q30.6-14.85 30.6-16.25L30.6-16.25Q30.6-18.95 29.57-20.05 28.55-21.15 26.65-21.15L26.65-21.15ZM43.5-0.4Q45.55 0.5 47.59 0.5L47.59 0.5Q50.55 0.5 52.9-1 55.25-2.5 56.55-5.15 57.84-7.8 57.84-11.2L57.84-11.2Q57.84-14.2 56.84-16.6 55.84-19 54.05-20.35 52.25-21.7 50.05-21.7L50.05-21.7Q48.09-21.7 46.37-20.75 44.65-19.8 43.55-18.15L43.55-18.15 43.34-18.15 43.34-21.7 42.95-21.7 37.3-19.75 37.3-19.4 40.25-18.3 40.25 10.9 37.2 11.3 37.2 11.7 48 11.7 48 11.35 43.5 10.8 43.5-0.4ZM47.95 0Q46.15 0 44.82-1.05 43.5-2.1 43.5-3.55L43.5-3.55 43.5-17.2Q44.09-18.6 45.34-19.4 46.59-20.2 48.15-20.2L48.15-20.2Q50.9-20.2 52.55-17.55 54.2-14.9 54.2-10.5L54.2-10.5Q54.2-7.5 53.4-5.1 52.59-2.7 51.17-1.35 49.75 0 47.95 0L47.95 0ZM78.39-5.1L78.84-5.7 79.04-5.6 78.84-5.05Q77.84-2.4 75.87-0.95 73.89 0.5 71.14 0.5L71.14 0.5Q68.44 0.5 66.34-0.9 64.24-2.3 63.07-4.8 61.89-7.3 61.89-10.55L61.89-10.55Q61.89-13.8 63.14-16.35 64.39-18.9 66.69-20.3 68.99-21.7 71.94-21.7L71.94-21.7Q75.44-21.7 77.32-19.63 79.19-17.55 79.24-13.6L79.24-13.6 78.94-13.35 65.44-13.35Q65.34-12.05 65.34-11.3L65.34-11.3Q65.34-6.75 67.19-4.38 69.04-2 72.34-2L72.34-2Q74.04-2 75.62-2.78 77.19-3.55 78.39-5.1L78.39-5.1ZM71.39-21.15Q69.04-21.15 67.49-19.2 65.94-17.25 65.49-13.9L65.49-13.9 75.19-14.25Q75.34-14.85 75.34-16.25L75.34-16.25Q75.34-18.95 74.32-20.05 73.29-21.15 71.39-21.15L71.39-21.15ZM93.69-21.7Q94.69-21.7 95.39-21.03 96.09-20.35 96.09-19.4L96.09-19.4Q96.09-18.6 95.54-18.05 94.99-17.5 94.19-17.5L94.19-17.5Q93.69-17.5 93.37-17.73 93.04-17.95 92.69-18.4L92.69-18.4Q92.34-18.8 92.07-19 91.79-19.2 91.39-19.2L91.39-19.2Q90.59-19.2 89.77-18.25 88.94-17.3 88.59-16.05L88.59-16.05 88.59-0.8 92.59-0.4 92.59 0 82.29 0 82.29-0.4 85.34-0.8 85.34-18.3 82.39-19.4 82.39-19.75 88.04-21.7 88.44-21.7 88.44-17.3Q91.24-21.7 93.69-21.7L93.69-21.7ZM103.49-26L97.99-20.7 98.09-20.45 100.44-20.45 100.44-4.45Q100.44-2.9 100.79-1.95 101.14-1 101.99-0.4L101.99-0.4Q103.24 0.5 104.84 0.5L104.84 0.5Q106.39 0.5 107.76-0.4 109.14-1.3 109.89-2.85L109.89-2.85 109.69-3Q108.79-2.1 108.04-1.7 107.29-1.3 106.49-1.3L106.49-1.3Q104.84-1.3 104.24-2.5L104.24-2.5Q103.69-3.35 103.69-5.1L103.69-5.1 103.69-20.4 109.09-20.4 109.39-21.2 103.69-21.2 103.69-25.95 103.49-26ZM122.09-21.7Q124.99-21.7 127.24-20.3 129.49-18.9 130.74-16.38 131.99-13.85 131.99-10.6L131.99-10.6Q131.99-7.35 130.74-4.83 129.49-2.3 127.24-0.9 124.99 0.5 122.09 0.5L122.09 0.5Q119.19 0.5 116.94-0.9 114.69-2.3 113.44-4.83 112.19-7.35 112.19-10.6L112.19-10.6Q112.19-13.85 113.44-16.38 114.69-18.9 116.94-20.3 119.19-21.7 122.09-21.7L122.09-21.7ZM115.89-10.6Q115.89-5.6 117.54-2.8 119.19 0 122.09 0L122.09 0Q124.99 0 126.64-2.8 128.29-5.6 128.29-10.6L128.29-10.6Q128.29-15.6 126.64-18.4 124.99-21.2 122.09-21.2L122.09-21.2Q119.19-21.2 117.54-18.4 115.89-15.6 115.89-10.6L115.89-10.6ZM137.23-28.9Q137.23-29.95 137.91-30.63 138.58-31.3 139.63-31.3L139.63-31.3Q140.68-31.3 141.36-30.63 142.03-29.95 142.03-28.9L142.03-28.9Q142.03-27.85 141.36-27.18 140.68-26.5 139.63-26.5L139.63-26.5Q138.58-26.5 137.91-27.18 137.23-27.85 137.23-28.9L137.23-28.9ZM141.53-0.8L141.53-21.7 141.13-21.7 135.33-19.75 135.33-19.4 138.28-18.3 138.28-0.8 135.23-0.4 135.23 0 144.58 0 144.58-0.4 141.53-0.8ZM158.08-21.7Q159.08-21.7 159.78-21.03 160.48-20.35 160.48-19.4L160.48-19.4Q160.48-18.6 159.93-18.05 159.38-17.5 158.58-17.5L158.58-17.5Q158.08-17.5 157.75-17.73 157.43-17.95 157.08-18.4L157.08-18.4Q156.73-18.8 156.46-19 156.18-19.2 155.78-19.2L155.78-19.2Q154.98-19.2 154.16-18.25 153.33-17.3 152.98-16.05L152.98-16.05 152.98-0.8 156.98-0.4 156.98 0 146.68 0 146.68-0.4 149.73-0.8 149.73-18.3 146.78-19.4 146.78-19.75 152.43-21.7 152.83-21.7 152.83-17.3Q155.63-21.7 158.08-21.7L158.08-21.7ZM179.08-5.1L179.53-5.7 179.73-5.6 179.53-5.05Q178.53-2.4 176.55-0.95 174.58 0.5 171.83 0.5L171.83 0.5Q169.13 0.5 167.03-0.9 164.93-2.3 163.75-4.8 162.58-7.3 162.58-10.55L162.58-10.55Q162.58-13.8 163.83-16.35 165.08-18.9 167.38-20.3 169.68-21.7 172.63-21.7L172.63-21.7Q176.13-21.7 178-19.63 179.88-17.55 179.93-13.6L179.93-13.6 179.63-13.35 166.13-13.35Q166.03-12.05 166.03-11.3L166.03-11.3Q166.03-6.75 167.88-4.38 169.73-2 173.03-2L173.03-2Q174.73-2 176.3-2.78 177.88-3.55 179.08-5.1L179.08-5.1ZM172.08-21.15Q169.73-21.15 168.18-19.2 166.63-17.25 166.18-13.9L166.18-13.9 175.88-14.25Q176.03-14.85 176.03-16.25L176.03-16.25Q176.03-18.95 175-20.05 173.98-21.15 172.08-21.15L172.08-21.15Z" opacity="1" transform="matrix(1,0,0,1,0,0)" fill="#000000" class="wordmark-text-0" data-fill-palette-color="quaternary" id="text-0"></path></svg></g></svg></g></svg></g></svg></g><g transform="matrix(1,0,0,1,71.15428123680394,0)"><svg viewBox="0 0 70.84987875354928 70.88502254261354" height="70.88502254261354" width="70.84987875354928"><g><svg xmlns:dc="http://purl.org/dc/elements/1.1/" xmlns:cc="http://creativecommons.org/ns#" xmlns:rdf="http://www.w3.org/1999/02/22-rdf-syntax-ns#" xmlns:svg="http://www.w3.org/2000/svg" xmlns="http://www.w3.org/2000/svg" xmlns:sodipodi="http://sodipodi.sourceforge.net/DTD/sodipodi-0.dtd" xmlns:inkscape="http://www.inkscape.org/namespaces/inkscape" preserveAspectRatio="xMidYMid" viewBox="0 0 63 63.03125" version="1.1" x="0" y="0" height="70.88502254261354" width="70.84987875354928" class="icon-icon-0" data-fill-palette-color="quaternary" id="icon-0"><path d="M9.5 0C4.253 0 0 4.25 0 9.5L0 53.531C0 58.781 4.253 63.031 9.5 63.031L53.5 63.031C58.747 63.031 63 58.781 63 53.531L63 9.5C63 4.25 58.747 0 53.5 0L9.5 0zM10 3L17 3 17 60.031 10 60.031 10 3zM20 3L35 3 35 60.031 20 60.031 20 3zM38 3L53.5 3C57.09 3 60 5.908 60 9.5L60 53.531C60 57.123 57.09 60.031 53.5 60.031L38 60.031 38 3zM6.969 3.5C6.978 3.496 6.991 3.504 7 3.5L7 59.531C4.653 58.55 3 56.236 3 53.531L3 9.5C3 6.806 4.636 4.487 6.969 3.5z" fill="#000000" fill-rule="evenodd" data-fill-palette-color="quaternary"></path></svg></g></svg></g><g></g></svg></g></svg></g></svg></g></svg></g><defs></defs></svg><rect width="342.8515585177538" height="342.8515585177538" fill="none" stroke="none" visibility="hidden"></rect></g></svg></g></svg>